<svg width="1185" height="500" viewBox="0 0 1185 500" fill="none" xmlns="http://www.w3.org/2000/svg">
<g clip-path="url(#clip0_63_106)">
<rect width="1185" height="500" fill="#BCDC2B"/>
<path d="M335.656 163.886V200.761H356.114V331.87H405.212V163.886H335.656Z" fill="#112421"/>
<path fill-rule="evenodd" clip-rule="evenodd" d="M298.832 167.984L212.909 167.984L163.81 331.87H212.909L221.603 303.19H290.137L298.832 331.87H347.93L298.832 167.984ZM278.958 266.315H232.782L247.687 217.15H264.053L278.958 266.315Z" fill="#112421"/>
<path d="M558.646 335.967C538.114 335.967 522.511 332.79 512.758 325.936C503.005 319.083 497.872 308.717 497.359 294.839H543.043C545.028 301.201 549.563 302.806 555.875 302.806H567.938C572.247 302.806 578.204 301.871 578.204 296.381C578.204 291.956 572.994 290.69 569.478 290.47L542.786 288.671C529.782 287.814 519.602 283.959 512.244 277.105C496.966 262.534 497 230.44 515.324 218.207C524.735 212.039 537.653 208.955 554.079 208.955H605.7V245.83H552.539C549.963 245.83 543.043 246.18 543.043 249.927C543.043 253.7 548.721 254.547 551.512 254.746L578.718 256.545C592.174 257.444 606.339 262.053 614.136 273.764C625.11 289.749 620.627 316.157 604.126 326.45C593.689 332.961 578.836 335.967 558.646 335.967Z" fill="#112421"/>
<path fill-rule="evenodd" clip-rule="evenodd" d="M752.802 335.959C765.355 335.959 777.562 331.762 783.682 320.229V332.104H823.638V248.321C823.638 223.233 810.854 208.955 785.397 208.955L720.263 208.955V245.83L769.228 245.83C775.088 245.83 779.494 249.095 779.494 255.26V259.372H749.722C727.103 259.372 705.835 269.919 705.835 295.096C705.835 321.187 728.563 335.959 752.802 335.959ZM779.493 283.017H759.219C754.241 283.017 751.262 288.367 751.262 292.783C751.262 297.186 754.227 302.806 759.219 302.806H767.175C772.828 302.806 776.357 297.325 777.954 292.526C778.955 289.519 779.468 286.349 779.493 283.017Z" fill="#112421"/>
<path d="M898.346 245.83C892.486 245.83 888.125 249.095 888.125 255.26V331.87H839.026V248.321C839.026 223.187 852.712 208.955 877.267 208.955H926.995V245.83H898.346Z" fill="#112421"/>
<path d="M437.945 163.886H487.044V200.761H437.945V163.886Z" fill="#112421"/>
<path d="M417.487 208.955H487.044V331.87H437.945V245.83H417.487V208.955Z" fill="#112421"/>
<path d="M638.432 208.955L620.02 208.955V245.83H638.432V331.87H687.53V245.83H705.942V208.955H687.53V167.984H638.432V208.955Z" fill="#112421"/>
<path fill-rule="evenodd" clip-rule="evenodd" d="M1023.04 163.886H941.206V192.566H994.397V245.829H1023.04V163.886Z" fill="#112421"/>
</g>
<defs>
<clipPath id="clip0_63_106">
<rect width="1185" height="500" fill="white"/>
</clipPath>
</defs>
</svg>
